<svg width="664" height="70" viewBox="0 0 664 70" fill="none" xmlns="http://www.w3.org/2000/svg">
    <g clip-path="url(#clip0_29_77)">
        <path d="M19.8047 6.23828H33.4703V67.7945H19.8047V6.23828Z" fill="#D1D3DA" />
        <path d="M1.76953 6.23828H51.5058V18.0818H1.76953V6.23828Z" fill="#8A6A8A" />
        <path opacity="0.73" d="M19.8047 18.082H33.4703V67.7945H19.8047V18.082Z"
            fill="url(#paint0_linear_29_77)" />
        <path
            d="M89.3299 21.4805V33.2655C84.5707 33.2655 80.6994 37.1368 80.6992 41.896L80.6994 67.5311H68.9145V41.8963C68.9145 30.6389 78.0726 21.4805 89.3299 21.4805Z"
            fill="#D1D3DA" />
        <path
            d="M159.756 49.5155C160.047 48.0688 160.193 46.5765 160.193 45.0478C160.193 43.6192 160.066 42.227 159.811 40.8712C157.846 29.861 148.191 21.4805 136.626 21.4805C123.632 21.4805 113.059 32.054 113.059 45.0478C113.059 58.0416 123.632 68.6151 136.626 68.6151C146.844 68.6151 155.561 62.0727 158.828 52.9643H145.289C143.141 55.3118 140.056 56.7859 136.626 56.7859C131.74 56.7859 127.536 53.7741 125.779 49.5155H147.482H159.756ZM125.661 40.8712C127.345 36.458 131.63 33.3096 136.626 33.3096C141.63 33.3096 145.907 36.458 147.6 40.8712H125.661Z"
            fill="#D1D3DA" />
        <path d="M199.062 67.7945H187.219V6.23828H199.062L199.062 67.7945Z" fill="#D1D3DA" />
        <path d="M239.246 67.7945H227.402V6.23828H239.246L239.246 67.7945Z" fill="#D1D3DA" />
        <path
            d="M312.889 49.5155C313.18 48.0688 313.326 46.5765 313.326 45.0478C313.326 43.6192 313.199 42.227 312.944 40.8712C310.978 29.861 301.324 21.4805 289.758 21.4805C276.765 21.4805 266.191 32.054 266.191 45.0478C266.191 58.0416 276.765 68.6151 289.758 68.6151C299.977 68.6151 308.694 62.0727 311.961 52.9643H298.421C296.274 55.3118 293.189 56.7859 289.758 56.7859C284.873 56.7859 280.668 53.7741 278.912 49.5155H300.614H312.889ZM278.794 40.8712C280.478 36.458 284.763 33.3096 289.758 33.3096C294.763 33.3096 299.04 36.458 300.732 40.8712H278.794Z"
            fill="#D1D3DA" />
        <path
            d="M385.542 44.6139L385.541 67.7481H373.701V44.6057C373.696 38.3823 368.632 33.3212 362.407 33.3212C356.18 33.3212 351.115 38.3867 351.115 44.6139L351.114 67.7481H339.273L339.274 44.6139C339.274 31.858 349.651 21.4805 362.407 21.4805C375.163 21.4805 385.542 31.858 385.542 44.6139Z"
            fill="#D1D3DA" />
        <path d="M413.004 21.2734H424.59V66.4005H413.004V21.2734Z" fill="#D1D3DA" />
        <path
            d="M418.798 17.0178C422.736 17.0178 425.928 13.8256 425.928 9.88779C425.928 5.94999 422.736 2.75781 418.798 2.75781C414.86 2.75781 411.668 5.94998 411.668 9.88779C411.668 13.8256 414.86 17.0178 418.798 17.0178Z"
            fill="#8A6A8A" />
        <path d="M465.859 67.7945H454.016V6.23828H465.859L465.859 67.7945Z" fill="#D1D3DA" />
        <path
            d="M516.419 55.9497V67.7979C503.991 67.7979 493.883 57.6896 493.883 45.262V6.23828H505.731V22.2289H516.17V33.1654H505.731V45.262C505.731 51.1448 510.453 55.9497 516.419 55.9497Z"
            fill="#D1D3DA" />
        <path
            d="M564.979 68.3928C552.046 68.3928 541.523 57.8704 541.523 44.9371C541.523 32.0028 552.046 21.4805 564.979 21.4805C577.913 21.4805 588.436 32.0028 588.436 44.9371C588.436 57.8704 577.913 68.3928 564.979 68.3928ZM564.979 33.2543C558.538 33.2543 553.297 38.4956 553.297 44.9371C553.297 51.3785 558.538 56.6189 564.979 56.6189C571.421 56.6189 576.662 51.3785 576.662 44.9371C576.662 38.4956 571.421 33.2543 564.979 33.2543Z"
            fill="#D1D3DA" />
        <path
            d="M660.874 44.6139L660.873 67.7481H649.033V44.6057C649.028 38.3823 643.964 33.3212 637.739 33.3212C631.512 33.3212 626.447 38.3867 626.447 44.6139L626.446 67.7481H614.605L614.606 44.6139C614.606 31.858 624.983 21.4805 637.739 21.4805C650.495 21.4805 660.874 31.858 660.874 44.6139Z"
            fill="#D1D3DA" />
    </g>
    <defs>
        <linearGradient id="paint0_linear_29_77" x1="26.6375" y1="45.1876" x2="26.6375" y2="18.0008"
            gradientUnits="userSpaceOnUse">
            <stop stop-opacity="0" />
            <stop offset="0.32525" stop-opacity="0.29272" />
            <stop offset="0.72238" stop-opacity="0.65014" />
            <stop offset="1" stop-opacity="0.9" />
        </linearGradient>
        <clipPath id="clip0_29_77">
            <rect width="663.737" height="69.8349" fill="white" />
        </clipPath>
    </defs>
</svg>